<svg width="44" height="44" viewBox="0 0 44 44" fill="none" xmlns="http://www.w3.org/2000/svg">
<path d="M31.0251 30.0244C31.2671 30.3104 31.0636 30.7449 30.6896 30.7449H27.4501C27.1916 30.7449 26.9441 30.6294 26.7736 30.4314L21.9996 24.7389L17.2256 30.4314C17.0606 30.6294 16.8131 30.7449 16.5491 30.7449H13.3096C12.9356 30.7449 12.7321 30.3104 12.9741 30.0244L19.7006 21.9999L12.9741 13.9754C12.9199 13.9116 12.8851 13.8337 12.8739 13.7507C12.8627 13.6678 12.8755 13.5834 12.9108 13.5076C12.9461 13.4317 13.0025 13.3676 13.0732 13.3228C13.1439 13.278 13.2259 13.2544 13.3096 13.2549H16.5491C16.8076 13.2549 17.0551 13.3704 17.2256 13.5684L21.9996 19.2609L26.7736 13.5684C26.9386 13.3704 27.1861 13.2549 27.4501 13.2549H30.6896C31.0636 13.2549 31.2671 13.6894 31.0251 13.9754L24.2986 21.9999L31.0251 30.0244Z" fill="#FFC300"/>
</svg>
