<svg width="64" height="52" viewBox="0 0 64 52" fill="none" xmlns="http://www.w3.org/2000/svg">
<path d="M63.8348 6.19188C61.4403 7.24613 58.9037 7.94202 56.3064 8.25717C59.0409 6.6136 61.0883 4.03611 62.0706 1.00068C59.5363 2.47969 56.7275 3.55631 53.7375 4.15591C51.7648 2.04646 49.1509 0.647372 46.3015 0.1759C43.4521 -0.295572 40.5268 0.186957 37.9798 1.54856C35.4328 2.91016 33.4067 5.07463 32.216 7.70587C31.0253 10.3371 30.7367 13.2879 31.3951 16.0999C20.4957 15.5856 10.8354 10.3518 4.37042 2.43972C3.19465 4.43789 2.58138 6.71694 2.5956 9.03532C2.5956 13.5923 4.91406 17.5976 8.42638 19.9507C6.34472 19.8844 4.30905 19.3216 2.48901 18.3091V18.4717C2.48783 21.5 3.53436 24.4356 5.45105 26.7802C7.36774 29.1248 10.0365 30.7341 13.0047 31.3351C11.0814 31.8505 9.06705 31.9279 7.10992 31.5616C7.9527 34.1677 9.58781 36.4458 11.7872 38.0781C13.9866 39.7105 16.6406 40.6157 19.3791 40.6676C14.7408 44.3075 9.01389 46.2831 3.11792 46.2771C2.07861 46.2771 1.04197 46.2159 0 46.0986C6.01121 49.9476 13.0007 51.9907 20.1386 51.9853C44.2665 51.9853 57.4443 32.0093 57.4443 14.7142C57.4443 14.1572 57.4444 13.5949 57.4044 13.0353C59.9786 11.1828 62.1991 8.8829 63.96 6.24518L63.8348 6.19188Z" fill="white"/>
</svg>
