<svg width="64" height="45" viewBox="0 0 64 45" fill="none" xmlns="http://www.w3.org/2000/svg">
<path d="M62.6247 6.90229C62.254 5.57399 61.5469 4.36378 60.5718 3.38864C59.5966 2.4135 58.3864 1.70641 57.0581 1.3357C52.0727 3.82962e-05 32.0085 3.78186e-05 32.0085 3.78186e-05C32.0085 3.78186e-05 11.9949 -0.0266216 6.95881 1.3357C5.63051 1.70641 4.42031 2.4135 3.44517 3.38864C2.47003 4.36378 1.76293 5.57399 1.39222 6.90229C0.447184 12.0064 -0.0187245 17.1876 0.000575834 22.3784C-0.0150758 27.5496 0.450818 32.711 1.39222 37.7958C1.76293 39.1241 2.47003 40.3343 3.44517 41.3094C4.42031 42.2846 5.63051 42.9917 6.95881 43.3624C11.9389 44.7007 32.0085 44.7007 32.0085 44.7007C32.0085 44.7007 52.0194 44.7007 57.0581 43.3624C58.3864 42.9917 59.5966 42.2846 60.5718 41.3094C61.5469 40.3343 62.254 39.1241 62.6247 37.7958C63.5464 32.7091 63.9927 27.5477 63.9577 22.3784C63.9963 17.1894 63.5501 12.0082 62.6247 6.90229V6.90229ZM25.6048 31.9519V12.7755L42.3045 22.3784L25.6048 31.9519Z" fill="white"/>
</svg>
